<?xml version="1.0" encoding="UTF-8"?>
<svg version="1.1" xmlns="http://www.w3.org/2000/svg" width="48" height="48">
<path d="M0 0 C2.64 0 5.28 0 8 0 C8.33 1.32 8.66 2.64 9 4 C19.23 4 29.46 4 40 4 C38.87356322 11.88505747 38.87356322 11.88505747 36 16.375 C35.46375 17.22835938 34.9275 18.08171875 34.375 18.9609375 C33 21 33 21 32 22 C28.38921217 22.20331861 24.78526199 22.34705115 21.16992188 22.4296875 C19.10624096 22.5141348 17.04999406 22.74813769 15 23 C14.34 23.99 13.68 24.98 13 26 C20.59 26 28.18 26 36 26 C36 27.32 36 28.64 36 30 C31.54172074 30.0578304 27.0835372 30.09353855 22.625 30.125 C21.35398437 30.14175781 20.08296875 30.15851562 18.7734375 30.17578125 C17.56171875 30.18222656 16.35 30.18867187 15.1015625 30.1953125 C13.98088379 30.20578613 12.86020508 30.21625977 11.70556641 30.22705078 C9 30 9 30 7 28 C7.29782392 25.26001994 7.7057232 22.76710358 8.6953125 20.1875 C9.14883846 16.9314162 7.90444174 14.83527255 6.5625 11.875 C4 6.16348774 4 6.16348774 4 4 C2.68 4 1.36 4 0 4 C0 2.68 0 1.36 0 0 Z " fill="#FFFFFF" transform="translate(2,4)"/>
<path d="M0 0 C3 0.125 3 0.125 4 1.125 C4.125 4.125 4.125 4.125 4 7.125 C3 8.125 3 8.125 0 8.25 C-3 8.125 -3 8.125 -4 7.125 C-4.125 4.125 -4.125 4.125 -4 1.125 C-3 0.125 -3 0.125 0 0 Z " fill="#FFFFFF" transform="translate(34,35.875)"/>
<path d="M0 0 C3 0.125 3 0.125 4 1.125 C4.125 4.125 4.125 4.125 4 7.125 C3 8.125 3 8.125 0 8.25 C-3 8.125 -3 8.125 -4 7.125 C-4.125 4.125 -4.125 4.125 -4 1.125 C-3 0.125 -3 0.125 0 0 Z " fill="#FFFFFF" transform="translate(14,35.875)"/>
</svg>
