<svg width="47" height="47" viewBox="0 0 47 47" fill="none" xmlns="http://www.w3.org/2000/svg">
<path d="M32.9959 35.2396L32.0144 34.2581C31.668 33.9117 31.2542 33.7384 30.7731 33.7384C30.2919 33.7384 29.8781 33.9117 29.5317 34.2581C29.1853 34.6045 29.0121 35.0086 29.0121 35.4705C29.0121 35.9324 29.1853 36.3366 29.5317 36.683L31.7835 38.9348C32.1299 39.2812 32.534 39.4544 32.9959 39.4544C33.4578 39.4544 33.862 39.2812 34.2084 38.9348L39.8089 33.4498C40.1553 33.1033 40.3285 32.6896 40.3285 32.2084C40.3285 31.7273 40.1553 31.3135 39.8089 30.9671C39.4625 30.6207 39.0487 30.4474 38.5675 30.4474C38.0864 30.4474 37.6726 30.6207 37.3262 30.9671L32.9959 35.2396ZM9.26609 14.1657H32.3608C33.0152 14.1657 33.5637 13.9443 34.0063 13.5017C34.449 13.059 34.6703 12.5105 34.6703 11.8562C34.6703 11.2018 34.449 10.6533 34.0063 10.2107C33.5637 9.76805 33.0152 9.54672 32.3608 9.54672H9.26609C8.61174 9.54672 8.06324 9.76805 7.62059 10.2107C7.17794 10.6533 6.95662 11.2018 6.95662 11.8562C6.95662 12.5105 7.17794 13.059 7.62059 13.5017C8.06324 13.9443 8.61174 14.1657 9.26609 14.1657ZM34.6703 46.4983C31.4755 46.4983 28.7523 45.3724 26.5005 43.1207C24.2488 40.8689 23.1229 38.1457 23.1229 34.9509C23.1229 31.7561 24.2488 29.0329 26.5005 26.7812C28.7523 24.5294 31.4755 23.4036 34.6703 23.4036C37.8651 23.4036 40.5883 24.5294 42.8401 26.7812C45.0918 29.0329 46.2177 31.7561 46.2177 34.9509C46.2177 38.1457 45.0918 40.8689 42.8401 43.1207C40.5883 45.3724 37.8651 46.4983 34.6703 46.4983ZM0.0281982 43.9001V4.92778C0.0281982 3.65757 0.48047 2.5702 1.38501 1.66565C2.28956 0.761109 3.37693 0.308838 4.64715 0.308838H36.9798C38.25 0.308838 39.3374 0.761109 40.2419 1.66565C41.1465 2.5702 41.5987 3.65757 41.5987 4.92778V20.3435C40.8674 19.9971 40.1168 19.7084 39.347 19.4775C38.5772 19.2465 37.7881 19.0733 36.9798 18.9578V4.92778H4.64715V37.3759H18.6772C18.8697 38.5691 19.168 39.7046 19.5721 40.7823C19.9763 41.8601 20.5055 42.8801 21.1599 43.8424C20.9674 43.8809 20.7653 43.852 20.5536 43.7558C20.3419 43.6595 20.1591 43.5345 20.0051 43.3805L18.1576 41.5329C17.9266 41.302 17.6572 41.1865 17.3492 41.1865C17.0413 41.1865 16.7719 41.302 16.5409 41.5329L14.6934 43.3805C14.4624 43.6114 14.193 43.7269 13.885 43.7269C13.5771 43.7269 13.3077 43.6114 13.0767 43.3805L11.2291 41.5329C10.9982 41.302 10.7288 41.1865 10.4208 41.1865C10.1129 41.1865 9.84346 41.302 9.61251 41.5329L7.76493 43.3805C7.53399 43.6114 7.26455 43.7269 6.95662 43.7269C6.64869 43.7269 6.37925 43.6114 6.1483 43.3805L4.30072 41.5329C4.06978 41.302 3.80034 41.1865 3.49241 41.1865C3.18448 41.1865 2.91504 41.302 2.68409 41.5329L0.836514 43.3805L0.0281982 43.9001ZM9.26609 32.6414H18.6772C18.7927 31.8331 18.9659 31.0441 19.1968 30.2742C19.4278 29.5044 19.7165 28.7538 20.0629 28.0225H9.26609C8.61174 28.0225 8.06324 28.2438 7.62059 28.6865C7.17794 29.1291 6.95662 29.6776 6.95662 30.332C6.95662 30.9863 7.17794 31.5348 7.62059 31.9775C8.06324 32.4201 8.61174 32.6414 9.26609 32.6414ZM9.26609 23.4036H23.3539C24.8165 21.9794 26.5198 20.8535 28.4636 20.026C30.4074 19.1984 32.4763 18.7846 34.6703 18.7846H9.26609C8.61174 18.7846 8.06324 19.0059 7.62059 19.4486C7.17794 19.8912 6.95662 20.4397 6.95662 21.0941C6.95662 21.7484 7.17794 22.2969 7.62059 22.7396C8.06324 23.1822 8.61174 23.4036 9.26609 23.4036Z" fill="white" fill-opacity="0.9"/>
</svg>
